<svg version="1.2" xmlns="http://www.w3.org/2000/svg" viewBox="0 0 1593 1594" width="1593" height="1594">
	<title>makemytrip-seeklogo</title>
	<style>
		.s0 { fill: #e31e25 } 
		.s1 { fill: #ffffff } 
	</style>
	<g id="Layer">
		<path id="Layer" class="s0" d="m1233.5 1593.4c96.3-1.3 187.5-38.8 253.8-106.4 67.5-67.5 105-158.9 105-254v-869.5c0-96.4-37.5-187.7-103.8-256.5-67.5-67.6-158.7-106.4-255-106.4h-873.8c-96.2 1.3-187.5 38.8-253.7 106.4-67.5 68.8-105 160.1-105 256.5v870.8c1.2 197.7 161.2 357.8 358.7 359.1"/>
		<path id="Layer" class="s1" d="m986 846.4c-33.7 112.6 21.3 225.2 137.5 180.2-33.7 81.3-90 202.7-90 329.1 0 0 0 85 62.5 106.3 0 0 87.5 21.3 68.8-56.3-13.8-48.8-17.5-98.8-11.3-148.9 21.3-103.8 53.8-205.2 96.3-302.8 0 0 133.7-279 211.2-409.1 0 0 32.5-66.3-33.7-66.3-20 0-38.8 10-51.3 26.3l-188.7 336.5c-28.8 52.6-56.3 68.8-77.5 68.8-47.5 0-37.5-76.3-30-103.8 21.2-93.9 55-183.9 100-270.3 33.7-73.8-33.8-80-33.8-80-42.5-11.3-75 58.8-75 58.8l-75 152.6c-48.7 85.1-102.5 166.4-160 245.2 0 0-10 12.6-17.5 7.6-7.5-6.3-3.8-18.8-3.8-18.8 12.6-103.9 33.8-206.5 62.6-307.8 1.2-6.3 2.5-11.3 2.5-17.5 1.2-13.8-2.5-27.6-11.3-37.6-8.7-11.2-21.2-17.5-35-17.5-33.7-3.7-50 12.5-80 48.8-66.2 81.3-143.8 204-181.3 259-3.7 6.3-11.2 5-11.2-3.7 0-25.1 87.5-295.3 87.5-295.3 0 0 10-37.6-20-50.1 0 0-46.2-28.7-83.8 27.6l-180 245.2c-13.7 18.8-21.2 12.5-21.2 12.5v-16.3l28.7-160.1c22.5-122.6-20-128.9-47.5-133.9-20 0-41.2 6.3-58.7 17.5-56.3 27.6-98.8 138.9-98.8 138.9 0 0-12.5 40.1 15 56.3 8.8 5 18.8 8.8 28.8 7.5 40-2.5 47.5-76.3 76.2-76.3 5 0 5 6.3 5 7.5l-92.5 389.1c-6.2 22.5 3.8 46.3 22.5 58.8 12.5 7.5 26.3 8.8 40 6.3 12.5-3.8 23.8-12.5 31.3-23.8l33.7-52.5c48.8-86.4 138.8-210.2 147.6-210.2 3.7 0 5 0 5 3.7l-33.8 229c-3.8 20 7.5 41.3 26.2 50 17.5 6.3 36.3 5 52.5-3.7 18.8-15 35.1-33.8 46.3-55.1 18.7-30 108.8-136.4 163.7-233.9 3.8-6.3 7.6 0 6.3 3.7-11.2 51.3-20 187.7-21.2 221.5-2.5 66.3 48.7 73.8 50 73.8 33.7 2.5 66.2-12.5 85-40.1"/>
	</g>
</svg>